HIERARCHY
ROOT hip
{
  OFFSET 0 0 0
  CHANNELS 6 Xposition Yposition Zposition Zrotation Yrotation Xrotation
  JOINT abdomen
  {
    OFFSET 0 20.6881 -0.73152
    CHANNELS 3 Zrotation Xrotation Yrotation
    JOINT chest
    {
      OFFSET 0 11.7043 -0.48768
      CHANNELS 3 Zrotation Xrotation Yrotation
      JOINT neck
      {
        OFFSET 0 22.1894 -2.19456
        CHANNELS 3 Zrotation Xrotation Yrotation
        JOINT head
        {
          OFFSET -0.24384 7.07133 1.2192
          CHANNELS 3 Zrotation Xrotation Yrotation
          JOINT leftEye
          {
            OFFSET 4.14528 8.04674 8.04672
            CHANNELS 3 Zrotation Xrotation Yrotation
            End Site
            {
              OFFSET 1 0 0
            }
          }
          JOINT rightEye
          {
            OFFSET -3.6576 8.04674 8.04672
            CHANNELS 3 Zrotation Xrotation Yrotation
            End Site
            {
              OFFSET 1 0 0
            }
          }
        }
      }
      JOINT rCollar
      {
        OFFSET -2.68224 19.2634 -4.8768
        CHANNELS 3 Zrotation Xrotation Yrotation
        JOINT rShldr
        {
          OFFSET -8.77824 -1.95073 1.46304
          CHANNELS 3 Zrotation Xrotation Yrotation
          JOINT rForeArm
          {
            OFFSET -28.1742 -1.7115 0.48768
            CHANNELS 3 Zrotation Xrotation Yrotation
            JOINT rHand
            {
              OFFSET -22.5879 0.773209 7.07136
              CHANNELS 3 Zrotation Xrotation Yrotation
              JOINT rThumb1
              {
                OFFSET -1.2192 -0.487915 3.41376
                CHANNELS 3 Zrotation Xrotation Yrotation
                JOINT rThumb2
                {
                  OFFSET -3.37035 -0.52449 3.41376
                  CHANNELS 3 Zrotation Xrotation Yrotation
                  End Site
                  {
                    OFFSET -1.78271 -1.18214 1.43049
                  }
                }
              }
              JOINT rIndex1
              {
                OFFSET -7.75947 0.938293 5.60832
                CHANNELS 3 Zrotation Xrotation Yrotation
                JOINT rIndex2
                {
                  OFFSET -2.54057 -0.884171 1.56538
                  CHANNELS 3 Zrotation Xrotation Yrotation
                  End Site
                  {
                    OFFSET -1.62519 -0.234802 1.16502
                  }
                }
              }
              JOINT rMid1
              {
                OFFSET -8.24714 1.18213 3.41376
                CHANNELS 3 Zrotation Xrotation Yrotation
                JOINT rMid2
                {
                  OFFSET -3.10165 -0.590103 1.0647
                  CHANNELS 3 Zrotation Xrotation Yrotation
                  End Site
                  {
                    OFFSET -2.48547 -0.328903 0.83742
                  }
                }
              }
              JOINT rRing1
              {
                OFFSET -8.82822 0.546677 1.51678
                CHANNELS 3 Zrotation Xrotation Yrotation
                JOINT rRing2
                {
                  OFFSET -2.60934 -0.819778 -0.0198488
                  CHANNELS 3 Zrotation Xrotation Yrotation
                  End Site
                  {
                    OFFSET -2.33842 -0.294052 0.168128
                  }
                }
              }
              JOINT rPinky1
              {
                OFFSET -8.27202 -0.0477905 -0.4584
                CHANNELS 3 Zrotation Xrotation Yrotation
                JOINT rPinky2
                {
                  OFFSET -1.82734 -0.647385 -0.700984
                  CHANNELS 3 Zrotation Xrotation Yrotation
                  End Site
                  {
                    OFFSET -1.69225 -0.51767 -0.607171
                  }
                }
              }
            }
          }
        }
      }
      JOINT lCollar
      {
        OFFSET 2.68224 19.2634 -4.8768
        CHANNELS 3 Zrotation Xrotation Yrotation
        JOINT lShldr
        {
          OFFSET 8.77824 -1.95073 1.46304
          CHANNELS 3 Zrotation Xrotation Yrotation
          JOINT lForeArm
          {
            OFFSET 28.1742 -1.7115 0.48768
            CHANNELS 3 Zrotation Xrotation Yrotation
            JOINT lHand
            {
              OFFSET 22.5879 0.773209 7.07136
              CHANNELS 3 Zrotation Xrotation Yrotation
              JOINT lThumb1
              {
                OFFSET 1.2192 -0.487915 3.41376
                CHANNELS 3 Zrotation Xrotation Yrotation
                JOINT lThumb2
                {
                  OFFSET 3.37035 -0.52449 3.41376
                  CHANNELS 3 Zrotation Xrotation Yrotation
                  End Site
                  {
                    OFFSET 1.78271 -1.18214 1.43049
                  }
                }
              }
              JOINT lIndex1
              {
                OFFSET 7.75947 0.938293 5.60832
                CHANNELS 3 Zrotation Xrotation Yrotation
                JOINT lIndex2
                {
                  OFFSET 2.54057 -0.884171 1.56538
                  CHANNELS 3 Zrotation Xrotation Yrotation
                  End Site
                  {
                    OFFSET 1.62519 -0.234802 1.16502
                  }
                }
              }
              JOINT lMid1
              {
                OFFSET 8.24714 1.18213 3.41376
                CHANNELS 3 Zrotation Xrotation Yrotation
                JOINT lMid2
                {
                  OFFSET 3.10165 -0.590103 1.0647
                  CHANNELS 3 Zrotation Xrotation Yrotation
                  End Site
                  {
                    OFFSET 2.48547 -0.328903 0.83742
                  }
                }
              }
              JOINT lRing1
              {
                OFFSET 8.82822 0.546677 1.51678
                CHANNELS 3 Zrotation Xrotation Yrotation
                JOINT lRing2
                {
                  OFFSET 2.60934 -0.819778 -0.0198488
                  CHANNELS 3 Zrotation Xrotation Yrotation
                  End Site
                  {
                    OFFSET 2.33842 -0.294052 0.168128
                  }
                }
              }
              JOINT lPinky1
              {
                OFFSET 8.27202 -0.0477905 -0.4584
                CHANNELS 3 Zrotation Xrotation Yrotation
                JOINT lPinky2
                {
                  OFFSET 1.82734 -0.647385 -0.700984
                  CHANNELS 3 Zrotation Xrotation Yrotation
                  End Site
                  {
                    OFFSET 1.69225 -0.51767 -0.607171
                  }
                }
              }
            }
          }
        }
      }
    }
  }
  JOINT rButtock
  {
    OFFSET -8.77824 4.35084 1.2192
    CHANNELS 3 Zrotation Xrotation Yrotation
    JOINT rThigh
    {
      OFFSET 0 -1.70687 -2.19456
      CHANNELS 3 Zrotation Xrotation Yrotation
      JOINT rShin
      {
        OFFSET 0 -36.8199 0.73152
        CHANNELS 3 Zrotation Xrotation Yrotation
        JOINT rFoot
        {
          OFFSET 0.73152 -45.1104 -5.12064
          CHANNELS 3 Zrotation Xrotation Yrotation
          End Site
          {
            OFFSET -1.1221 -3.69964 12.103
          }
        }
      }
    }
  }
  JOINT lButtock
  {
    OFFSET 8.77824 4.35084 1.2192
    CHANNELS 3 Zrotation Xrotation Yrotation
    JOINT lThigh
    {
      OFFSET 0 -1.70687 -2.19456
      CHANNELS 3 Zrotation Xrotation Yrotation
      JOINT lShin
      {
        OFFSET 0 -36.8199 0.73152
        CHANNELS 3 Zrotation Xrotation Yrotation
        JOINT lFoot
        {
          OFFSET -0.73152 -45.1104 -5.12064
          CHANNELS 3 Zrotation Xrotation Yrotation
          End Site
          {
            OFFSET 1.1221 -3.69964 12.103
          }
        }
      }
    }
  }
}
MOTION
Frames:	5
Frame Time:	0.00833333
0.166374 84.3996 -73.2617 0.0 0.0 0.0 -0.991226 -0.00434165 -0.0274292 -0.27343 -0.00447545 -0.0473708 -2.97986e-14 7.95139e-16 3.47873e-16 -8.94283e-14 9.54166e-15 1.03896e-15 -0.0 0.0 0.0 -0.0 0.0 0.0 -1.51097e-14 -3.53309e-17 1.98785e-16 -3.10215e-13 -5.8393e-16 3.77691e-15 -5.39283e-12 1.58511e-12 1.27222e-13 -6.16882e-11 -1.75254e-12 6.13847e-13 -1.45513e-10 -3.65315e-13 1.64435e-12 -2.51297e-10 -6.2975e-13 2.82592e-12 -1.45506e-10 -3.63776e-13 1.63481e-12 7.73091 5.47488 0.417314 -1.45511e-10 -3.65366e-13 1.64117e-12 2.90554 0.965183 0.102902 -1.45507e-10 -3.6477e-13 1.6364e-12 10.2786 0.731801 0.0259123 -1.45513e-10 -3.64571e-13 1.64117e-12 2.22167 -0.733487 -0.20892 -1.51066e-14 -3.57191e-17 9.93923e-17 -3.15348e-13 -5.77718e-16 1.59028e-15 -5.3901e-12 -1.6356e-12 1.08139e-13 -6.16699e-11 1.47083e-12 6.42472e-13 -1.45469e-10 -3.60075e-13 1.62844e-12 -2.51206e-10 -6.23389e-13 2.83387e-12 -1.45476e-10 -3.58608e-13 1.64117e-12 -7.73091 5.47488 -0.417314 -1.45471e-10 -3.599e-13 1.63162e-12 -2.90554 0.965183 -0.102902 -1.45476e-10 -3.59701e-13 1.63719e-12 -10.2786 0.731801 -0.0259123 -1.45472e-10 -3.61788e-13 1.62844e-12 -2.22167 -0.733487 0.20892 -2.03217e-16 0.0 -3.88251e-19 -0.253772 -1.9193 -0.0128551 -0.00928934 -2.07855 -0.0767346 -0.497382 3.99655 0.138112 2.03217e-16 0.0 3.88251e-19 -1.25488 -5.46677 0.109736 -9.50893e-05 4.34723 -0.0243741 0.511596 1.11837 -0.0811188
-0.175218 82.9624 -74.6908 -1.1008 -0.9775 6.0701 -0.582948 0.575817 -0.813167 0.125904 0.865527 -0.279532 -1.21589 1.90946 -1.47469 1.10902 -4.81104 -2.57228 -0.0 0.0 0.0 -0.0 0.0 0.0 -2.5919e-16 3.74951e-14 -1.01834e-14 20.8862 2.65317 3.63614 -3.79885 -1.65007 6.01335 0.147593 8.53972 1.15259 1.50165e-10 -1.08652e-10 -1.79393e-10 2.5508e-10 -1.79903e-10 -3.15809e-10 1.50169e-10 -1.0865e-10 -1.79406e-10 7.73091 5.47488 0.417314 1.50165e-10 -1.08653e-10 -1.79395e-10 2.90554 0.965183 0.102902 1.50171e-10 -1.08652e-10 -1.794e-10 10.2786 0.731801 0.0259123 1.5016e-10 -1.08652e-10 -1.79392e-10 2.22167 -0.733487 -0.20892 -2.12939e-16 3.74949e-14 -1.02475e-14 -21.1407 6.87996 -4.01474 3.09388 -1.23794 -4.99936 -0.000913329 -0.671764 0.094387 -2.38304e-10 1.78594e-10 9.52109e-11 -4.11542e-10 3.0921e-10 1.6387e-10 -2.38309e-10 1.78593e-10 9.52208e-11 -7.73091 5.47488 -0.417314 -2.38304e-10 1.78594e-10 9.52141e-11 -2.90554 0.965183 -0.102902 -2.38312e-10 1.78593e-10 9.52179e-11 -10.2786 0.731801 -0.0259123 -2.38303e-10 1.7859e-10 9.52082e-11 -2.22167 -0.733487 0.20892 -2.03217e-16 0.0 -3.88251e-19 -0.640801 -6.03337 -0.968072 -0.00898939 4.33339 0.0256614 -0.506769 0.243914 -0.30373 2.03217e-16 0.0 3.88251e-19 0.16941 -8.80731 2.00174 -0.0131962 9.3829 -0.107381 0.595211 -1.51719 1.23195
-0.126487 82.9706 -74.6368 -1.1184 -0.8461 6.0306 -0.140402 1.1949 -1.64058 0.558487 1.7836 -0.524205 -2.38908 3.91832 -3.02657 1.79783 -9.85254 -5.32947 -0.0 0.0 0.0 -0.0 0.0 0.0 1.50606e-14 7.75108e-14 -2.22856e-14 42.5873 5.43063 7.52456 -7.44333 -3.33577 12.3909 -0.0864943 17.5564 2.45947 4.81263e-10 -2.36735e-10 -3.74725e-10 8.22261e-10 -3.92513e-10 -6.59942e-10 4.81266e-10 -2.36733e-10 -3.74741e-10 7.73091 5.47488 0.417314 4.81262e-10 -2.36736e-10 -3.74726e-10 2.90554 0.965183 0.102902 4.8127e-10 -2.36736e-10 -3.74731e-10 10.2786 0.731801 0.0259123 4.81254e-10 -2.36737e-10 -3.7472e-10 2.22167 -0.733487 -0.20892 1.51557e-14 7.75109e-14 -2.23074e-14 -42.401 14.0285 -8.47088 6.1353 -2.51792 -10.2995 0.000534692 -1.38689 0.19491 -3.26294e-10 3.95741e-10 2.01281e-10 -5.63472e-10 6.85157e-10 3.46414e-10 -3.26298e-10 3.95736e-10 2.01288e-10 -7.73091 5.47488 -0.417314 -3.26293e-10 3.95741e-10 2.01284e-10 -2.90554 0.965183 -0.102902 -3.26305e-10 3.95738e-10 2.01286e-10 -10.2786 0.731801 -0.0259123 -3.26291e-10 3.95735e-10 2.01275e-10 -2.22167 -0.733487 0.20892 -2.03217e-16 0.0 -3.88251e-19 -1.20617 -10.3907 -2.0023 -0.0338971 11.1249 0.136412 -0.57895 -3.72565 -0.766903 2.03217e-16 0.0 3.88251e-19 1.91677 -12.327 4.04845 -0.0106547 14.7108 -0.198851 0.815086 -4.29946 2.62528
-0.0686648 82.9795 -74.5739 -1.1382 -0.7735 5.9999 0.281347 1.7348 -2.38561 0.945741 2.60534 -0.744528 -3.35186 5.71316 -4.44373 2.00025 -14.3149 -7.93761 -0.0 0.0 0.0 -0.0 0.0 0.0 2.94418e-14 1.12556e-13 -3.09479e-14 61.6471 7.83082 11.0006 -10.3736 -4.73251 18.0964 -0.682372 25.5754 3.79139 7.4152e-10 -3.25226e-10 -5.41468e-10 1.26784e-09 -5.38449e-10 -9.53079e-10 7.41521e-10 -3.25224e-10 -5.41486e-10 7.73091 5.47488 0.417314 7.41518e-10 -3.25227e-10 -5.41468e-10 2.90554 0.965183 0.102902 7.41528e-10 -3.25227e-10 -5.41472e-10 10.2786 0.731801 0.0259123 7.41507e-10 -3.25228e-10 -5.41459e-10 2.22167 -0.733487 -0.20892 2.95744e-14 1.12556e-13 -3.09413e-14 -60.393 20.2213 -12.7556 8.64069 -3.60089 -15.0249 0.00390332 -2.01527 0.283317 -4.23972e-10 5.36502e-10 2.82376e-10 -7.32215e-10 9.28876e-10 4.85942e-10 -4.23974e-10 5.36495e-10 2.8238e-10 -7.73091 5.47488 -0.417314 -4.2397e-10 5.36501e-10 2.82379e-10 -2.90554 0.965183 -0.102902 -4.23985e-10 5.36497e-10 2.82379e-10 -10.2786 0.731801 -0.0259123 -4.23966e-10 5.36494e-10 2.82368e-10 -2.22167 -0.733487 0.20892 -2.03217e-16 0.0 -3.88251e-19 -1.83781 -14.2459 -2.95333 -0.0791885 17.1571 0.24085 -0.699875 -7.2598 -1.19633 2.03217e-16 0.0 3.88251e-19 3.70164 -15.4253 5.93026 0.00687259 19.4541 -0.285525 1.12654 -6.77392 3.8839
-0.0346954 83.0008 -74.5188 -1.2777 -0.7145 5.9835 0.616925 2.07802 -2.92372 1.20493 3.18646 -0.903356 -3.99221 6.98674 -5.50601 1.90922 -17.4363 -9.97 -0.0 0.0 0.0 -0.0 0.0 0.0 4.14764e-14 1.35174e-13 -3.10104e-14 74.8313 9.41431 13.3554 -12.2361 -5.61555 22.0678 -1.35816 31.1414 4.87131 8.24675e-10 -3.14735e-10 -6.36737e-10 1.40939e-09 -5.17696e-10 -1.11872e-09 8.24675e-10 -3.14733e-10 -6.36757e-10 7.73091 5.47488 0.417314 8.24672e-10 -3.14737e-10 -6.36737e-10 2.90554 0.965183 0.102902 8.24683e-10 -3.14737e-10 -6.36741e-10 10.2786 0.731801 0.0259123 8.2466e-10 -3.14738e-10 -6.36728e-10 2.22167 -0.733487 -0.20892 4.16183e-14 1.35174e-13 -3.10104e-14 -72.4131 24.4292 -15.933 10.2589 -4.30023 -18.2879 0.00722874 -2.42684 0.341276 -5.45869e-10 4.86297e-10 3.01033e-10 -9.42995e-10 8.4203e-10 5.17929e-10 -5.4587e-10 4.86289e-10 3.01036e-10 -7.73091 5.47488 -0.417314 -5.45866e-10 4.86297e-10 3.01036e-10 -2.90554 0.965183 -0.102902 -5.45882e-10 4.86292e-10 3.01036e-10 -10.2786 0.731801 -0.0259123 -5.45861e-10 4.86289e-10 3.01024e-10 -2.22167 -0.733487 0.20892 -2.03217e-16 0.0 -3.88251e-19 -2.32849 -16.8604 -3.62714 -0.124332 21.2916 0.318191 -0.822514 -9.70704 -1.52984 2.03217e-16 0.0 3.88251e-19 5.08826 -17.526 7.27667 0.0282388 22.7358 -0.34953 1.40996 -8.49305 4.77933
